<?xml version="1.0" encoding="utf-8"?>
<!-- Generator: Adobe Illustrator 16.0.0, SVG Export Plug-In . SVG Version: 6.00 Build 0)  -->
<!DOCTYPE svg PUBLIC "-//W3C//DTD SVG 1.1//EN" "http://www.w3.org/Graphics/SVG/1.1/DTD/svg11.dtd">
<svg version="1.1" id="Layer_1" xmlns="http://www.w3.org/2000/svg" xmlns:xlink="http://www.w3.org/1999/xlink" x="0px" y="0px"
	 width="1px" height="1px" viewBox="0 0 269 334" enable-background="new 0 0 269 334" xml:space="preserve">
<g id="Layer_10">
	<g>
		<g>
			<polygon fill="#FFF" points="202.721,104.242 159.486,61.008 159.496,61.019 102.914,5.252 70.986,36.852 112.947,78.813 
				137.498,103.111 137.373,103.237 183.918,149.782 183.918,149.782 201.5,167.984 104.626,264.882 104.599,330.748 
				266.911,168.435 			"/>
			<polygon fill="#FFF" points="202.721,104.242 159.486,61.008 159.496,61.019 102.914,5.252 70.986,36.852 112.947,78.813 
				137.498,103.111 137.373,103.237 183.918,149.782 183.918,149.782 201.5,167.984 104.626,264.882 104.599,330.748 
				266.911,168.435 			"/>
		</g>
		<polygon fill="#FFF" points="104.264,170.092 69.615,135.443 104.264,100.795 71.736,68.269 5.269,134.736 104.264,233.731 
			170.731,167.264 138.912,135.443 		"/>
	</g>
	<g>
		<g>
			<polygon fill="#FFF" points="202.721,104.242 159.486,61.008 159.496,61.019 102.914,5.252 70.986,36.852 112.947,78.813 
				137.498,103.111 137.373,103.237 183.918,149.782 183.918,149.782 201.5,167.984 104.626,264.882 104.599,330.748 
				266.911,168.435 			"/>
		</g>
		<polygon fill="#FFF" points="104.264,170.092 69.615,135.443 104.264,100.795 71.736,68.269 5.269,134.736 104.264,233.731 
			170.731,167.264 138.912,135.443 		"/>
	</g>
</g>
</svg>
